<svg xmlns="http://www.w3.org/2000/svg" xmlns:xlink="http://www.w3.org/1999/xlink" width="500" zoomAndPan="magnify" viewBox="0 0 375 374.999991" height="500" preserveAspectRatio="xMidYMid meet" version="1.0"><defs><g/><clipPath id="id1"><path d="M 0 8.191406 L 375 8.191406 L 375 332.535156 L 0 332.535156 Z M 0 8.191406 " clip-rule="nonzero"/></clipPath></defs><g clip-path="url(#id1)"><path fill="#29a3a3" d="M 0.234375 332.535156 L 187.640625 8.191406 L 375.046875 332.535156 Z M 0.234375 332.535156 " fill-opacity="1" fill-rule="nonzero"/></g><g fill="#ffffff" fill-opacity="1"><g transform="translate(118.959561, 274.605259)"><g><path d="M 67.390625 -135.625 L 139.234375 2.578125 L 104.421875 2.578125 L 96.015625 -14.40625 L 37.203125 -14.40625 L 28.984375 2.578125 L -4.28125 2.578125 Z M 99.109375 -19.546875 L 107.515625 -2.578125 L 130.65625 -2.578125 L 67.390625 -124.484375 L 4.28125 -2.578125 L 25.890625 -2.578125 L 34.125 -19.546875 Z M 66.359375 -86.9375 L 90.015625 -38.578125 L 43.03125 -38.578125 Z M 66.359375 -75.109375 L 51.265625 -43.71875 L 81.796875 -43.71875 Z M 66.359375 -75.109375 "/></g></g></g></svg>